<svg width="137" height="28" viewBox="0 0 137 28" fill="none" xmlns="http://www.w3.org/2000/svg">
<path opacity="0.67" d="M20.9263 9.98389C21.3642 9.98389 21.7184 10.3381 21.7184 10.776V27.2074C21.7184 27.6454 21.3642 27.9995 20.9263 27.9995H5.06611C4.62942 27.9995 4.27399 27.6454 4.27399 27.2074V10.776C4.27399 10.3381 4.62815 9.98389 5.06611 9.98389H20.9263Z" fill="#F27591"/>
<path d="M3.5593 10.6862C3.5593 10.5111 3.62404 10.341 3.74082 10.2102L12.4618 0.43184C12.7461 0.113215 13.245 0.113215 13.5294 0.43184L22.2516 10.2102C22.3683 10.341 22.4331 10.5111 22.4331 10.6862V23.9962C22.4331 24.3909 22.1132 24.7108 21.7184 24.7108H4.27525C3.88046 24.7108 3.56056 24.3909 3.56056 23.9962V10.6862H3.5593Z" fill="#EE294C"/>
<path d="M12.4832 0.216119C12.7637 -0.0720398 13.2271 -0.0720398 13.5076 0.216119L25.8693 12.9027C26.1346 13.1744 25.9416 13.6314 25.5621 13.6314H0.430023C0.0504649 13.6314 -0.142489 13.1744 0.12282 12.9027L12.4845 0.216119H12.4832Z" fill="#EE294C"/>
<path d="M42.1434 10.1631C42.0748 9.47383 41.7816 8.9394 41.2649 8.55857C40.747 8.17648 40.045 7.98606 39.1564 7.98606C38.5534 7.98606 38.0444 8.07112 37.628 8.24249C37.2129 8.40751 36.8943 8.63855 36.6721 8.93433C36.4563 9.2301 36.3472 9.5665 36.3472 9.94225C36.3357 10.2558 36.4018 10.5287 36.5439 10.7623C36.6912 10.9959 36.8943 11.1977 37.1494 11.3678C37.4059 11.5328 37.7016 11.6775 38.0368 11.8032C38.3732 11.9225 38.7311 12.0254 39.112 12.1104L40.6822 12.4862C41.4452 12.6575 42.1446 12.8848 42.7819 13.1691C43.4191 13.4535 43.9713 13.8038 44.4372 14.2189C44.9044 14.634 45.2649 15.124 45.5213 15.6877C45.7828 16.2513 45.9161 16.8974 45.9224 17.6261C45.9161 18.6962 45.6432 19.6241 45.1037 20.4099C44.5692 21.1893 43.7949 21.7961 42.7819 22.229C41.7752 22.6555 40.5604 22.8688 39.1374 22.8688C37.7143 22.8688 36.497 22.653 35.451 22.2201C34.41 21.7872 33.5963 21.1474 33.0099 20.2995C32.577 19.6622 32.2977 18.9133 32.172 18.0501C32.0997 17.5499 32.5135 17.131 33.0187 17.131H35.6731C35.7125 17.7175 35.8813 18.2075 36.1771 18.5997C36.4792 18.9869 36.8803 19.2801 37.3805 19.4794C37.887 19.6724 38.4582 19.7701 39.0955 19.7701C39.7327 19.7701 40.2646 19.6787 40.7254 19.4972C41.1926 19.3157 41.5531 19.0618 41.8095 18.7368C42.0659 18.4118 42.1929 18.0399 42.1929 17.6185C42.1929 17.2262 42.0761 16.8949 41.8425 16.6283C41.6153 16.3605 41.2789 16.1332 40.8359 15.9454C40.3979 15.7575 39.8597 15.5874 39.2224 15.4325L37.3195 14.9539C35.8457 14.596 34.6817 14.0349 33.8286 13.2719C32.9756 12.509 32.5516 11.4821 32.5567 10.1898C32.5503 9.13108 32.8321 8.20567 33.4021 7.41482C33.9772 6.62397 34.7642 6.00577 35.7658 5.56147C36.7673 5.11717 37.9048 4.89502 39.1793 4.89502C40.4538 4.89502 41.6089 5.11717 42.5762 5.56147C43.5486 6.00577 44.3065 6.6227 44.846 7.41482C45.223 7.96702 45.4731 8.57889 45.5949 9.25295C45.685 9.74803 45.27 10.1644 44.766 10.1644H42.1408L42.1434 10.1631Z" fill="#111111"/>
<path d="M52.206 22.8691C51.3695 22.8691 50.6243 22.7244 49.9706 22.4337C49.3168 22.1379 48.7989 21.7025 48.4168 21.1274C48.041 20.5473 47.8532 19.8237 47.8532 18.9592C47.8532 18.2306 47.9865 17.6187 48.2543 17.1237C48.5222 16.6286 48.8852 16.23 49.3473 15.9279C49.8081 15.6257 50.3311 15.3985 50.9176 15.2449C51.5091 15.0913 52.1299 14.9834 52.7785 14.9199C53.5415 14.84 54.1559 14.7663 54.6217 14.6978C55.0889 14.6242 55.4266 14.5163 55.6373 14.3728C55.848 14.2306 55.9534 14.0199 55.9534 13.7406V13.6899C55.9534 13.1491 55.7833 12.7302 55.4418 12.4344C55.1054 12.1386 54.6281 11.9901 54.0073 11.9901C53.3536 11.9901 52.8331 12.1348 52.446 12.4255C52.2022 12.6045 52.0105 12.8127 51.8709 13.0513C51.7262 13.2976 51.4736 13.4842 51.1892 13.4614L48.9982 13.2837C48.6364 13.2545 48.38 12.9117 48.5031 12.5702C48.6923 12.046 48.9652 11.5763 49.3232 11.1624C49.8233 10.576 50.4695 10.1266 51.2603 9.81305C52.0562 9.49442 52.9791 9.33447 54.0251 9.33447C54.7538 9.33447 55.4507 9.41953 56.1159 9.5909C56.7874 9.76227 57.3815 10.0263 57.8994 10.3843C58.4224 10.7435 58.835 11.2043 59.1371 11.768C59.4392 12.3252 59.589 12.9942 59.589 13.7749V21.719C59.589 22.2166 59.1853 22.6203 58.6877 22.6203H56.1412V20.8012H56.0384C55.8277 21.2112 55.5459 21.573 55.193 21.8853C54.8401 22.1925 54.4161 22.4349 53.921 22.6114C53.4259 22.7815 52.8547 22.8678 52.206 22.8678V22.8691ZM53.247 20.3582C53.7814 20.3582 54.2536 20.2528 54.6636 20.0421C55.0737 19.8263 55.3948 19.5356 55.6284 19.1712C55.862 18.8069 55.9788 18.3943 55.9788 17.9335V16.5423C55.8645 16.6159 55.7084 16.6844 55.5091 16.7466C55.3161 16.8038 55.0965 16.8584 54.8515 16.9091C54.6065 16.9548 54.3628 16.998 54.1178 17.0373C53.8728 17.0716 53.6519 17.1034 53.4526 17.1313C53.0261 17.1935 52.6529 17.2938 52.3342 17.4296C52.0156 17.5667 51.7681 17.7508 51.5916 17.9843C51.4152 18.2116 51.3263 18.4972 51.3263 18.8386C51.3263 19.3337 51.5053 19.712 51.8646 19.9748C52.2289 20.2312 52.6897 20.3594 53.247 20.3594V20.3582Z" fill="#111111"/>
<path d="M64.2553 5.13477C64.7529 5.13477 65.1566 5.53844 65.1566 6.03605V22.6211H61.5209V5.13477H64.2553Z" fill="#111111"/>
<path d="M81.3354 6.03598C81.3354 5.70466 81.6045 5.43555 81.9358 5.43555H85.2858C85.6527 5.43555 85.9827 5.65897 86.1211 5.99917L90.7062 17.3351H90.9119L95.497 5.99917C95.6341 5.65897 95.9655 5.43555 96.3323 5.43555H99.6811C100.014 5.43555 100.283 5.70466 100.283 6.03598V22.9206H96.6979V11.5389H96.5532L92.0188 21.7248H89.5777L85.0649 11.4958H84.9202V22.9193H81.3354V6.03471V6.03598Z" fill="#111111"/>
<path d="M106.513 22.8689C105.677 22.8689 104.93 22.7242 104.276 22.4335C103.623 22.1377 103.105 21.7023 102.723 21.1272C102.348 20.5471 102.16 19.8235 102.16 18.959C102.16 18.2304 102.294 17.6185 102.561 17.1235C102.828 16.6284 103.192 16.2298 103.653 15.9277C104.114 15.6255 104.638 15.3983 105.223 15.2447C105.815 15.0911 106.436 14.9832 107.084 14.9197C107.847 14.8398 108.462 14.7661 108.928 14.6976C109.395 14.624 109.732 14.5161 109.943 14.3726C110.154 14.2304 110.259 14.0197 110.259 13.7405V13.6897C110.259 13.1489 110.089 12.73 109.748 12.4342C109.411 12.1384 108.934 11.9899 108.313 11.9899C107.659 11.9899 107.139 12.1346 106.752 12.4253C106.365 12.7097 106.108 13.0689 105.984 13.5005L102.621 13.2276C102.791 12.4304 103.128 11.7424 103.628 11.161C104.129 10.5745 104.774 10.1251 105.565 9.81158C106.362 9.49296 107.284 9.33301 108.331 9.33301C109.058 9.33301 109.755 9.41806 110.422 9.58943C111.093 9.76081 111.687 10.0248 112.205 10.3828C112.728 10.7421 113.141 11.2029 113.443 11.7665C113.744 12.3238 113.895 12.9928 113.895 13.7735V21.7175C113.895 22.2151 113.491 22.6188 112.994 22.6188H110.447V20.7997H110.344C110.134 21.2097 109.853 21.5715 109.5 21.8838C109.147 22.191 108.723 22.4335 108.228 22.6099C107.733 22.78 107.161 22.8663 106.513 22.8663V22.8689ZM107.554 20.358C108.089 20.358 108.561 20.2526 108.971 20.0419C109.381 19.8261 109.702 19.5354 109.936 19.171C110.168 18.8067 110.285 18.3942 110.285 17.9334V16.5421C110.172 16.6157 110.014 16.6842 109.815 16.7464C109.622 16.8036 109.402 16.8582 109.159 16.9089C108.914 16.9546 108.669 16.9978 108.425 17.0371C108.18 17.0714 107.958 17.1032 107.758 17.1311C107.332 17.1933 106.959 17.2936 106.64 17.4294C106.322 17.5665 106.074 17.7506 105.898 17.9841C105.722 18.2114 105.633 18.497 105.633 18.8385C105.633 19.3335 105.812 19.7118 106.172 19.9746C106.535 20.231 106.997 20.3592 107.554 20.3592V20.358Z" fill="#111111"/>
<path d="M121.911 9.50559V12.2374H115.809V9.50559H121.911ZM115.809 6.36377H118.543C119.041 6.36377 119.445 6.76744 119.445 7.26506V18.5896C119.445 18.926 119.496 19.1875 119.598 19.3754C119.701 19.5569 119.843 19.6851 120.025 19.76C120.213 19.8336 120.429 19.8717 120.674 19.8717C120.845 19.8717 121.015 19.8577 121.186 19.8285C121.357 19.7943 121.487 19.7689 121.579 19.7524L122.15 22.4588C121.968 22.5159 121.712 22.5807 121.382 22.6555C121.052 22.7355 120.651 22.7838 120.179 22.8003C119.303 22.8345 118.535 22.7177 117.875 22.4499C117.221 22.1821 116.71 21.7669 116.347 21.2033C115.983 20.6397 115.803 19.9288 115.809 19.0682V6.36377Z" fill="#111111"/>
<path d="M130.494 22.8765C129.146 22.8765 127.984 22.6036 127.012 22.0564C126.045 21.5042 125.299 20.7248 124.776 19.7169C124.252 18.7039 123.991 17.5056 123.991 16.1219C123.991 14.7382 124.252 13.5894 124.776 12.57C125.299 11.5507 126.036 10.7573 126.986 10.1873C127.942 9.61863 129.063 9.33301 130.349 9.33301C131.214 9.33301 132.018 9.47265 132.764 9.75192C133.515 10.0249 134.17 10.4374 134.727 10.9896C135.291 11.5418 135.729 12.2362 136.041 13.0727C136.355 13.9042 136.511 14.8779 136.511 15.9924V16.0902C136.511 16.5878 136.107 16.9914 135.61 16.9914H125.442V14.7369H133.089C133.089 14.2139 132.974 13.7493 132.747 13.3457C132.52 12.942 132.204 12.6259 131.8 12.3974C131.402 12.1638 130.938 12.047 130.409 12.047C129.88 12.047 129.368 12.1753 128.94 12.4317C128.52 12.6818 128.19 13.0207 127.951 13.4472C127.711 13.8687 127.589 14.3383 127.583 14.8563V16.9991C127.583 17.6477 127.704 18.2088 127.942 18.681C128.187 19.1533 128.531 19.5176 128.974 19.774C129.419 20.0304 129.946 20.1587 130.554 20.1587C130.957 20.1587 131.328 20.1015 131.663 19.9886C131.999 19.8743 132.286 19.7042 132.525 19.4757C132.764 19.2485 132.946 18.9692 133.072 18.6392L136.434 18.8613C136.263 19.6699 135.913 20.3757 135.385 20.9787C134.861 21.5766 134.184 22.0438 133.353 22.3789C132.528 22.7089 131.575 22.874 130.494 22.874V22.8765Z" fill="#111111"/>
<path d="M73.4853 23.312C72.1372 23.312 70.9756 23.0391 70.0033 22.492C69.036 21.9398 68.2908 21.1604 67.7678 20.1524C67.2435 19.1394 66.982 17.9411 66.982 16.5574C66.982 15.1738 67.2435 14.0249 67.7678 13.0056C68.2908 11.9862 69.0271 11.1928 69.9779 10.6229C70.9337 10.0542 72.0546 9.76855 73.3406 9.76855C74.205 9.76855 75.0099 9.90819 75.755 10.1875C76.5065 10.4604 77.1615 10.873 77.7188 11.4252C78.2824 11.9774 78.7204 12.6717 79.0327 13.5083C79.3462 14.3397 79.5024 15.3134 79.5024 16.4279V16.5257C79.5024 17.0233 79.0987 17.427 78.6011 17.427H68.433V15.1725H76.08C76.08 14.6495 75.9657 14.1849 75.7385 13.7812C75.5113 13.3775 75.1952 13.0614 74.7915 12.8329C74.3929 12.5994 73.9296 12.4826 73.4002 12.4826C72.8709 12.4826 72.3593 12.6108 71.9315 12.8672C71.5113 13.1173 71.1813 13.4562 70.9426 13.8828C70.7027 14.3042 70.5808 14.7739 70.5745 15.2918V17.4346C70.5745 18.0833 70.6951 18.6444 70.9337 19.1166C71.1787 19.5888 71.5228 19.9531 71.9658 20.2096C72.4101 20.466 72.9369 20.5942 73.5449 20.5942C73.9486 20.5942 74.3193 20.5371 74.6544 20.4241C74.9908 20.3099 75.2777 20.1397 75.5164 19.9112C75.755 19.684 75.9378 19.4048 76.0635 19.0747L79.4249 19.2968C79.2548 20.1055 78.9045 20.8113 78.3764 21.4142C77.8521 22.0121 77.1755 22.4793 76.344 22.8144C75.5189 23.1445 74.5668 23.3095 73.4853 23.3095V23.312Z" fill="#111111"/>
</svg>
